{
    "asset" : {
        "version" : "2.0",
        "generator" : "Khronos glTF Blender I/O v1.2.20"
    },
    "scene" : 0,
    "scenes" : [
        {
            "name" : "Scene",
            "nodes" : [
                0,
                1,
                2,
                3,
                4
            ]
        }
    ],
    "nodes" : [
        {
            "name" : "Lamp.002",
            "translation" : [
                0.15174055099487305,
                -5.878946781158447,
                0.6951539516448975
            ],
            "rotation" : [
                0.16907575726509094,
                0.7558803558349609,
                -0.27217137813568115,
                0.570947527885437
            ]
        },
        {
            "name" : "Lamp.001",
            "translation" : [
                -6.507673263549805,
                2.5058772563934326,
                2.9802775382995605
            ],
            "rotation" : [
                0.16907575726509094,
                0.7558803558349609,
                -0.27217137813568115,
                0.570947527885437
            ]
        },
        {
            "mesh" : 0,
            "name" : "Cube"
        },
        {
            "name" : "Lamp",
            "translation" : [
                5.738166332244873,
                4.066728591918945,
                -4.575594902038574
            ],
            "rotation" : [
                0.16907575726509094,
                0.7558803558349609,
                -0.27217137813568115,
                0.570947527885437
            ]
        },
        {
            "name" : "Camera",
            "translation" : [
                7.481131553649902,
                5.34366512298584,
                6.5076398849487305
            ],
            "rotation" : [
                0.483536034822464,
                0.33687159419059753,
                -0.20870360732078552,
                0.7804827094078064
            ]
        }
    ],
    "materials" : [
        {
            "name" : "Logo1",
            "pbrMetallicRoughness" : {
                "baseColorTexture" : {
                    "texCoord" : 0,
                    "index" : 0
                }
            }
        }
    ],
    "meshes" : [
        {
            "name" : "Cube",
            "primitives" : [
                {
                    "material" : 0,
                    "indices" : 3,
                    "attributes" : {
                        "TEXCOORD_0" : 0,
                        "NORMAL" : 1,
                        "POSITION" : 2
                    }
                }
            ]
        }
    ],
    "textures" : [
        {
            "source" : 0,
            "sampler" : 0
        }
    ],
    "images" : [
        {
            "mimeType" : "image/png",
            "name" : "ap-logo.png",
            "bufferView" : 4
        }
    ],
    "accessors" : [
        {
            "type" : "VEC2",
            "componentType" : 5126,
            "count" : 164,
            "bufferView" : 0
        },
        {
            "type" : "VEC3",
            "componentType" : 5126,
            "count" : 164,
            "bufferView" : 1
        },
        {
            "type" : "VEC3",
            "count" : 164,
            "max" : [
                1.0000004768371582,
                1,
                1.0000005960464478
            ],
            "bufferView" : 2,
            "componentType" : 5126,
            "min" : [
                -1.0000003576278687,
                -1,
                -1.0000003576278687
            ]
        },
        {
            "type" : "SCALAR",
            "componentType" : 5123,
            "count" : 564,
            "bufferView" : 3
        }
    ],
    "bufferViews" : [
        {
            "byteLength" : 1312,
            "byteOffset" : 0,
            "buffer" : 0
        },
        {
            "byteLength" : 1968,
            "byteOffset" : 1312,
            "buffer" : 0
        },
        {
            "byteLength" : 1968,
            "byteOffset" : 3280,
            "buffer" : 0
        },
        {
            "byteLength" : 1128,
            "byteOffset" : 5248,
            "buffer" : 0
        },
        {
            "byteLength" : 117680,
            "byteOffset" : 6376,
            "buffer" : 0
        }
    ],
    "samplers" : [
        {
            "wrapT" : 10497,
            "magFilter" : 9729,
            "minFilter" : 9986,
            "wrapS" : 10497
        }
    ],
    "buffers" : [
        {
            "uri" : "data:application/octet-stream;base64,",
            "byteLength" : 124056
        }
    ]
}
